<svg xmlns:xlink="http://www.w3.org/1999/xlink" xmlns="http://www.w3.org/2000/svg" style="width: 18px; height: 18px; fill: var(--color-icon-low-emphasis);" width="24"  height="24" ><defs><symbol id="amazing" xmlns="http://www.w3.org/2000/svg" viewBox="0 0 24 24"><path fill-rule="evenodd" d="M15.112 2.234c.687.231 1.153.525 1.895 1.171l.536.474.109.09.142.104.653.42c.837.54 1.244.9 1.663 1.495.381.542.579 1 .794 1.841l.226.941.053.185.049.142.285.719c.36.914.483 1.457.483 2.184 0 .728-.124 1.27-.483 2.184l-.246.615-.08.22-.06.211-.227.941c-.215.842-.413 1.3-.795 1.843-.416.59-.822.95-1.646 1.483l-.67.431-.14.104-.176.147-.471.417c-.742.646-1.208.94-1.898 1.172-.688.23-1.206.272-2.224.199l-.687-.052-.197-.006-.086.001-.212.01-.586.047c-1.018.073-1.537.03-2.23-.201-.686-.231-1.152-.524-1.893-1.17l-.594-.522-.144-.111-.103-.072-.619-.395c-.821-.532-1.229-.894-1.643-1.483-.417-.593-.614-1.085-.855-2.085l-.146-.621-.061-.225-.06-.179-.285-.719C2.123 13.27 2 12.729 2 12c0-.727.124-1.27.483-2.184l.285-.717.082-.258.039-.147.146-.621.118-.46c.195-.707.39-1.131.737-1.624.414-.59.82-.95 1.643-1.483l.552-.352.153-.104.16-.123.124-.105.47-.417c.743-.646 1.209-.94 1.897-1.171.69-.232 1.209-.274 2.227-.2l.7.052.228.005.275-.013.564-.044c1.02-.074 1.539-.031 2.229.2zm-1.931 1.784l-.89.065c-.105.006-.2.008-.291.008l-.275-.007-.156-.009-.563-.044-.385-.024c-.514-.024-.767.012-1.094.122l-.108.039c-.35.132-.62.313-1.138.767l-.55.486-.155.125-.142.107-.23.158-.72.462c-.517.343-.733.545-.958.866-.23.326-.347.596-.51 1.247l-.193.815-.05.19-.05.17-.094.271-.345.87C4.061 11.287 4 11.594 4 12l.002.12c.012.35.082.65.282 1.18l.37.934.07.21.074.257.219.914c.162.65.28.92.51 1.247.247.352.485.564 1.121.973l.559.356c.118.077.204.138.296.207l.073.056.241.2.464.411c.569.5.839.67 1.241.805.404.135.694.159 1.484.1l.306-.025.555-.034.133-.002c.09 0 .186.003.291.008l.166.01.536.043c.79.059 1.08.035 1.478-.098.407-.138.678-.308 1.247-.807l.387-.344.212-.182.181-.142.186-.133.108-.073.721-.462c.518-.342.735-.546.96-.866.25-.357.367-.644.554-1.431l.091-.391c.032-.138.059-.245.084-.34l.075-.26.094-.273.345-.869c.223-.587.284-.894.284-1.299 0-.405-.061-.712-.284-1.299l-.37-.934-.095-.293-.075-.274-.149-.631-.098-.39c-.109-.402-.203-.64-.34-.865l-.115-.175c-.226-.32-.441-.523-.96-.866l-.624-.4a7.664 7.664 0 01-.255-.17l-.212-.157-.155-.126-.697-.613c-.42-.357-.669-.516-.977-.634l-.218-.074c-.322-.098-.603-.12-1.195-.081zM16 15.5a1.5 1.5 0 10-3 0 1.5 1.5 0 003 0zm-1.8-8.1l1.6 1.2-6 8-1.6-1.2 6-8zM11 8.5a1.5 1.5 0 10-3 0 1.5 1.5 0 003 0z" clip-rule="evenodd"></path></symbol></defs><use xlink:href="#amazing" fill="#9E9FB1"></use></svg>