<svg xmlns:xlink="http://www.w3.org/1999/xlink" xmlns="http://www.w3.org/2000/svg" style="width: 18px; height: 18px; fill: var(--color-icon-low-emphasis);" width="24"  height="24" ><defs><symbol id="fresh" xmlns="http://www.w3.org/2000/svg" viewBox="0 0 24 24"><path fill-rule="evenodd" d="M18 4a2 2 0 00-2-2h-3a2 2 0 00-2 2v1.535a4.007 4.007 0 00-1.874 2.467A5.108 5.108 0 009 8l-.217.005A5 5 0 004 13H3a1 1 0 00-.99 1.141l1 7A1 1 0 004 22h16a1 1 0 00.99-.859l1-7A1 1 0 0021 13h-1V9l-.007-.232a4 4 0 00-1.992-3.232L18 4zM4.867 20l-.714-5h15.694l-.714 5H4.867zM16 7h-3a2 2 0 00-1.924 1.45 5.003 5.003 0 012.919 4.318L14 13h4V9a2 2 0 00-1.85-1.995L16 7zm-9.995 5.824A3 3 0 0112 13H6l.005-.176zM16 4h-3v1h3V4zm-1 14v-2H9v2h6z" clip-rule="evenodd"></path></symbol></defs><use xlink:href="#fresh" fill="#9E9FB1"></use></svg>